PathFileType	4	(X/Y/Z)	/Users/itak/Documents/Research/Walk-IL/dataset/trc/00002_00004.trc
DataRate	CameraRate	NumFrames	NumMarkers	Units	OrigDataRate	OrigDataStartFrame	OrigNumFrames
100.000000	100.000000	4	54	mm	100.000000	0	531
Frame#	Time	RPSI			LPSI			L3			STRN			T10			C7			CLAV			RBAK			LBAK			LSHO			LUPA			LAEL			LAOL			LWTS			LWPS			LFRA			LIFD			LHPS			LHTS			RSHO			RUPA			RAEL			RAOL			RWTS			RWPS			RFRA			RIFD			RHTS			RHPS			RBHD			LFHD			RFHD			LBHD			LHIP			RHIP			RASI			LASI			LKNE			LTHI			LANK			LTIP			LTOE			LMT1			LMT5			LHEE			RKNE			RTHI			RANK			RTIP			RTOE			RMT1			RMT5			RHEE			*53			
		X1	Y1	Z1	X2	Y2	Z2	X3	Y3	Z3	X4	Y4	Z4	X5	Y5	Z5	X6	Y6	Z6	X7	Y7	Z7	X8	Y8	Z8	X9	Y9	Z9	X10	Y10	Z10	X11	Y11	Z11	X12	Y12	Z12	X13	Y13	Z13	X14	Y14	Z14	X15	Y15	Z15	X16	Y16	Z16	X17	Y17	Z17	X18	Y18	Z18	X19	Y19	Z19	X20	Y20	Z20	X21	Y21	Z21	X22	Y22	Z22	X23	Y23	Z23	X24	Y24	Z24	X25	Y25	Z25	X26	Y26	Z26	X27	Y27	Z27	X28	Y28	Z28	X29	Y29	Z29	X30	Y30	Z30	X31	Y31	Z31	X32	Y32	Z32	X33	Y33	Z33	X34	Y34	Z34	X35	Y35	Z35	X36	Y36	Z36	X37	Y37	Z37	X38	Y38	Z38	X39	Y39	Z39	X40	Y40	Z40	X41	Y41	Z41	X42	Y42	Z42	X43	Y43	Z43	X44	Y44	Z44	X45	Y45	Z45	X46	Y46	Z46	X47	Y47	Z47	X48	Y48	Z48	X49	Y49	Z49	X50	Y50	Z50	X51	Y51	Z51	X52	Y52	Z52	X53	Y53	Z53	X54	Y54	Z54	

1	0	-1245.230102539062	1068.714599609375	-182.4422760009766	-1251.746215820312	1062.182006835938	-345.2366333007812	-1255.088745117188	1126.794311523438	-272.7466125488281	-1040.037109375	1327.703491210938	-269.8350219726562	-1288.28466796875	1267.68359375	-273.7681579589844	-1253.637939453125	1537.143676757812	-281.8854370117188	-1088.49658203125	1452.241333007812	-274.5785217285156	-1298.119018554688	1397.636840820312	-203.6564483642578	-1266.894653320312	1495.728881835938	-380.224853515625	-1162.479736328125	1508.385620117188	-451.9047241210938	-1184.668579101562	1382.747192382812	-531.338134765625	-1176.32763671875	1164.274658203125	-553.2244873046875	-1237.113159179688	1150.806518554688	-466.5950012207031	-1085.7763671875	914.0447387695312	-491.8809204101562	-1159.628784179688	896.9854736328125	-536.89501953125	-1160.456909179688	1048.45849609375	-557.26611328125	-1052.71875	732.297119140625	-471.1492004394531	-1123.567016601562	809.150390625	-534.5584716796875	-1058.755981445312	822.7711181640625	-504.162109375	-1177.376831054688	1526.112060546875	-105.9435272216797	-1188.128784179688	1452.948974609375	-33.76618194580078	-1211.971313476562	1182.6484375	-15.33789730072021	-1211.60595703125	1155.715087890625	-112.5515899658203	-1075.902954101562	927.0897827148438	-43.54345321655273	-1144.081298828125	910.874755859375	18.5280647277832	-1197.229248046875	1107.866577148438	-0.4868669211864471	-1057.027221679688	743.3464965820312	-59.85918807983398	-1041.830322265625	817.4472045898438	-27.03391265869141	-1100.257202148438	811.4513549804688	18.61000823974609	-1231.537841796875	1723.702026367188	-302.9323120117188	-1017.914855957031	1743.438598632812	-260.2111511230469	-1057.013061523438	1747.89453125	-350.4767761230469	-1169.156616210938	1713.557983398438	-173.6043395996094	-1156.689208984375	962.5408935546875	-452.2073974609375	-1128.994384765625	966.0099487304688	-81.84539031982422	-1026.411865234375	998.0181274414062	-159.0464782714844	-1038.265502929688	1012.128295898438	-394.1622009277344	-1117.355834960938	517.6455688476562	-399.8747253417969	-1136.712646484375	654.0011596679688	-437.3568115234375	-1215.161254882812	42.37387847900391	-395.4640502929688	-1200.6728515625	288.2332763671875	-417.1880798339844	-998.6524658203125	40.97085189819336	-323.3590087890625	-1057.854125976562	49.92623138427734	-308.5282592773438	-1089.65234375	40.15172958374023	-410.2483520507812	-1287.1240234375	48.82801818847656	-344.0891723632812	-1119.114868164062	529.4412231445312	-124.4521331787109	-1102.614990234375	796.9134521484375	-82.34417724609375	-1233.523803710938	48.71567916870117	-135.8226470947266	-1145.533325195312	406.36376953125	-123.2188339233398	-1001.677124023438	44.95578765869141	-177.7439880371094	-1064.506103515625	49.92068099975586	-208.5804901123047	-1085.279052734375	45.70809173583984	-113.8188095092773	-1263.660888671875	66.26410675048828	-157.3482971191406	nan	nan	nan	
2	0.01	-1245.27392578125	1068.737670898438	-182.52587890625	-1251.70703125	1062.194702148438	-345.3923645019531	-1255.091918945312	1126.79150390625	-272.8443298339844	-1040.094848632812	1327.697387695312	-269.8993835449219	-1288.331298828125	1267.678100585938	-273.8824768066406	-1253.671630859375	1537.12060546875	-281.9757080078125	-1088.601928710938	1452.202514648438	-274.5958557128906	-1298.214233398438	1397.62109375	-203.8100280761719	-1266.924560546875	1495.708862304688	-380.33642578125	-1162.471313476562	1508.379150390625	-451.9830017089844	-1184.647216796875	1382.71923828125	-531.4373168945312	-1176.253784179688	1164.245361328125	-553.2962036132812	-1237.047973632812	1150.780395507812	-466.6923522949219	-1085.697631835938	914.036376953125	-491.8897705078125	-1159.513061523438	896.966552734375	-536.9290161132812	-1160.393432617188	1048.441040039062	-557.3289184570312	-1052.483764648438	732.385498046875	-471.1729431152344	-1123.343139648438	809.125732421875	-534.585205078125	-1058.676025390625	822.81103515625	-504.1578674316406	-1177.494018554688	1526.112426757812	-106.0722198486328	-1188.289672851562	1452.939086914062	-33.88510894775391	-1212.171630859375	1182.642944335938	-15.49230289459229	-1211.712280273438	1155.717895507812	-112.6810150146484	-1076.262573242188	927.0219116210938	-43.63969421386719	-1144.394653320312	910.8628540039062	18.44321823120117	-1197.406372070312	1107.854370117188	-0.6031314730644226	-1057.331787109375	743.2610473632812	-59.91531372070312	-1042.256591796875	817.3251953125	-27.194580078125	-1100.556640625	811.3910522460938	18.64172172546387	-1231.412353515625	1723.745361328125	-303.1044616699219	-1017.837829589844	1743.355346679688	-260.2172241210938	-1056.91552734375	1747.874633789062	-350.5060424804688	-1169.177734375	1713.557983398438	-173.7081451416016	-1156.679931640625	962.5335083007812	-452.2630004882812	-1129.0341796875	966.031982421875	-81.89658355712891	-1026.493530273438	998.0172729492188	-159.1076507568359	-1038.270141601562	1012.068786621094	-394.2101440429688	-1117.371337890625	517.6337280273438	-399.9270324707031	-1136.766357421875	653.9946899414062	-437.4180908203125	-1215.166259765625	42.35947799682617	-395.4674987792969	-1200.714721679688	288.2256774902344	-417.1927490234375	-998.6502075195312	40.98247146606445	-323.3712158203125	-1057.859497070312	49.93331909179688	-308.5345153808594	-1089.655639648438	40.15390014648438	-410.2539672851562	-1287.1640625	48.86809539794922	-344.1123962402344	-1119.171997070312	529.4803466796875	-124.4848403930664	-1102.741821289062	797.011962890625	-82.33517456054688	-1233.52001953125	48.70980834960938	-135.8231658935547	-1145.492919921875	406.3854370117188	-123.1579208374023	-1001.695861816406	44.97160720825195	-177.7574768066406	-1064.510498046875	49.92292785644531	-208.5772857666016	-1085.278442382812	45.71833801269531	-113.817138671875	-1269.032348632812	62.49912261962891	-162.1019287109375	nan	nan	nan	
3	0.02	-1245.3349609375	1068.7734375	-182.6376647949219	-1251.656494140625	1062.213256835938	-345.5861511230469	-1255.08740234375	1126.7900390625	-272.9691467285156	-1040.162963867188	1327.689331054688	-269.9808959960938	-1288.385864257812	1267.670288085938	-274.0310974121094	-1253.713256835938	1537.1005859375	-282.0872802734375	-1088.715087890625	1452.156494140625	-274.6309509277344	-1298.326416015625	1397.603393554688	-204.0030212402344	-1266.947021484375	1495.689208984375	-380.4815063476562	-1162.45751953125	1508.368774414062	-452.0848693847656	-1184.616088867188	1382.684814453125	-531.561279296875	-1176.149047851562	1164.208862304688	-553.3846435546875	-1236.960693359375	1150.748046875	-466.8118591308594	-1085.583862304688	914.0274047851562	-491.9028930664062	-1159.367797851562	896.9437255859375	-536.97216796875	-1160.302612304688	1048.419555664062	-557.4041137695312	-1052.199096679688	732.486083984375	-471.19873046875	-1123.078002929688	809.0946044921875	-534.6195068359375	-1058.576171875	822.8518676757812	-504.1559753417969	-1177.627319335938	1526.11181640625	-106.2319488525391	-1188.489501953125	1452.927124023438	-34.03654098510742	-1212.4208984375	1182.637451171875	-15.68728923797607	-1211.845703125	1155.721313476562	-112.8479614257812	-1076.704467773438	926.937744140625	-43.76132583618164	-1144.768310546875	910.84716796875	18.33468818664551	-1197.621948242188	1107.841918945312	-0.7530635595321655	-1057.712646484375	743.1685791015625	-59.98572540283203	-1042.707275390625	817.195068359375	-27.38021850585938	-1100.947631835938	811.3256225585938	18.67584037780762	-1231.269165039062	1723.788452148438	-303.3171691894531	-1017.751953125	1743.256958007812	-260.2239379882812	-1056.785766601562	1747.85107421875	-350.5487976074219	-1169.205688476562	1713.556518554688	-173.8432922363281	-1156.666015625	962.5238647460938	-452.3306884765625	-1129.081298828125	966.0613403320312	-81.95684814453125	-1026.600463867188	998.0130615234375	-159.1782684326172	-1038.271850585938	1011.994323730469	-394.2635803222656	-1117.399047851562	517.6206665039062	-399.9909973144531	-1136.835205078125	653.9846801757812	-437.49365234375	-1215.173583984375	42.34682464599609	-395.468017578125	-1200.764404296875	288.2146606445312	-417.1942443847656	-998.6498413085938	40.99829864501953	-323.3879089355469	-1057.866455078125	49.94120025634766	-308.5432434082031	-1089.65771484375	40.15482330322266	-410.2579956054688	-1287.201904296875	48.903076171875	-344.1342468261719	-1119.248901367188	529.5299682617188	-124.5274353027344	-1102.897216796875	797.12158203125	-82.34162139892578	-1233.517944335938	48.70259857177734	-135.8235321044922	-1145.4580078125	406.4087219238281	-123.1069793701172	-1001.710327148438	44.98748397827148	-177.7652435302734	-1064.519897460938	49.92739105224609	-208.5739288330078	-1085.277221679688	45.73411560058594	-113.8154678344727	-1274.816528320312	58.43230438232422	-167.2199249267578	nan	nan	nan	
4	0.03	-1245.41259765625	1068.8232421875	-182.7763519287109	-1251.596435546875	1062.239501953125	-345.8090515136719	-1255.072265625	1126.791381835938	-273.1170349121094	-1040.235961914062	1327.67919921875	-270.0761413574219	-1288.444580078125	1267.660034179688	-274.2102966308594	-1253.759399414062	1537.088623046875	-282.2163391113281	-1088.822631835938	1452.106689453125	-274.6876220703125	-1298.446411132812	1397.5859375	-204.2270812988281	-1266.954345703125	1495.671752929688	-380.6583557128906	-1162.436767578125	1508.353515625	-452.2086791992188	-1184.573852539062	1382.645751953125	-531.7048950195312	-1176.013427734375	1164.167114257812	-553.4862060546875	-1236.853271484375	1150.71142578125	-466.9478149414062	-1085.43603515625	914.0189819335938	-491.9201354980469	-1159.19921875	896.918212890625	-537.0228881835938	-1160.182373046875	1048.39501953125	-557.4868774414062	-1051.881225585938	732.5910034179688	-471.2235107421875	-1122.790649414062	809.0586547851562	-534.6600952148438	-1058.457763671875	822.8876953125	-504.1578674316406	-1177.765258789062	1526.109741210938	-106.4148025512695	-1188.717529296875	1452.914184570312	-34.21461868286133	-1212.706420898438	1182.632934570312	-15.91501045227051	-1211.999633789062	1155.72509765625	-113.0458908081055	-1077.199096679688	926.843017578125	-43.90127182006836	-1145.178833007812	910.828369140625	18.2055835723877	-1197.864135742188	1107.83056640625	-0.9317522644996643	-1058.15234375	743.077880859375	-60.06663513183594	-1043.128784179688	817.0744018554688	-27.57319450378418	-1101.419189453125	811.263427734375	18.70657157897949	-1231.12060546875	1723.826049804688	-303.5595397949219	-1017.665893554688	1743.150756835938	-260.2308959960938	-1056.626708984375	1747.825805664062	-350.6062316894531	-1169.239624023438	1713.553100585938	-174.0061492919922	-1156.647094726562	962.5125122070312	-452.4065246582031	-1129.13427734375	966.0979614257812	-82.02210998535156	-1026.73046875	998.0038452148438	-159.2514343261719	-1038.267944335938	1011.908935546875	-394.3181762695312	-1117.441650390625	517.6071166992188	-400.0636291503906	-1136.91748046875	653.9705200195312	-437.5799255371094	-1215.182739257812	42.33857345581055	-395.4645690917969	-1200.818359375	288.1999816894531	-417.1906127929688	-998.6512451171875	41.01740264892578	-323.4087829589844	-1057.874389648438	49.94925308227539	-308.5540466308594	-1089.658325195312	40.15423202514648	-410.2596130371094	-1287.234130859375	48.92869186401367	-344.15234375	-1119.341796875	529.5889282226562	-124.5768051147461	-1103.077514648438	797.2341918945312	-82.36562347412109	-1233.519409179688	48.69379806518555	-135.8238983154297	-1145.433227539062	406.4304809570312	-123.0752792358398	-1001.721130371094	45.00500869750977	-177.7663116455078	-1064.536010742188	49.93484497070312	-208.5714721679688	-1085.276245117188	45.75707626342773	-113.8140869140625	-1280.185791015625	54.64299011230469	-171.9670257568359	nan	nan	nan	
